<?xml version="1.0" encoding="utf-8"?>
<!-- Generator: Adobe Illustrator 21.1.0, SVG Export Plug-In . SVG Version: 6.00 Build 0)  -->
<svg version="1.1" id="Layer_1" xmlns="http://www.w3.org/2000/svg" xmlns:xlink="http://www.w3.org/1999/xlink" x="0px" y="0px"
	 viewBox="0 0 141.9 59.4" style="enable-background:new 0 0 141.9 59.4;" xml:space="preserve">
<style type="text/css">
	.st0{fill:#BBABAB;}
	.st1{fill:#AD8E8E;}
	.st2{fill:#886D6D;}
	.st3{fill:#231F20;}
</style>
<polygon class="st0" points="138.6,16.6 138.6,22.7 135.4,22.7 6.5,22.7 3.4,22.7 3.4,16.6 19.5,16.6 32.3,16.6 109.7,16.6 
	122.5,16.6 "/>
<rect x="8.2" y="53.1" class="st1" width="125.5" height="2.9"/>
<rect x="8.2" y="49.6" class="st1" width="125.5" height="2.3"/>
<polygon class="st1" points="133.7,45.6 133.7,48.5 8.2,48.5 8.2,45.6 30.5,45.6 "/>
<polygon class="st2" points="133.7,33.6 133.7,36.5 33.9,36.5 8.2,36.5 8.2,33.6 "/>
<rect x="8.2" y="30.1" class="st2" width="125.5" height="2.3"/>
<rect x="8.2" y="26.1" class="st2" width="125.5" height="2.9"/>
<rect x="111.4" y="39.9" class="st2" width="9.4" height="2.3"/>
<rect x="111.4" y="3.3" class="st1" width="9.4" height="9.8"/>
<rect x="20.1" y="39.9" class="st2" width="10.4" height="2.3"/>
<rect x="21.2" y="3.3" class="st1" width="9.4" height="9.8"/>
<path class="st3" d="M140.3,13.2h-16.1V1.7c0-1-0.8-1.7-1.7-1.7h-12.8c-0.9,0-1.7,0.8-1.7,1.7v11.5H34V1.7c0-1-0.8-1.7-1.7-1.7H19.5
	c-1,0-1.7,0.8-1.7,1.7v11.5H1.7C0.8,13.2,0,14,0,14.9v9.5c0,0.9,0.8,1.7,1.7,1.7h3.1v12.1c0,0.9,0.8,1.7,1.7,1.7h10.2v2.3H6.5
	c-0.9,0-1.7,0.8-1.7,1.7v8.6v5.2c0,0.9,0.8,1.7,1.7,1.7h128.9c0.9,0,1.7-0.8,1.7-1.7v-5.2v-8.6c0-0.9-0.8-1.7-1.7-1.7h-11.3v-2.3
	h11.3c0.9,0,1.7-0.8,1.7-1.7V26.1h3.1c0.9,0,1.7-0.8,1.7-1.7v-9.5C142,14,141.2,13.2,140.3,13.2z M111.4,3.3h9.4v9.8h-9.4V3.3z
	 M21.2,3.3h9.4v9.8h-9.4V3.3z M133.7,32.4H8.2v-2.3h125.5V32.4z M20.1,39.9h10.4v2.3H20.1V39.9z M108,42.2H34v-2.3h74V42.2z
	 M133.7,51.9H8.2v-2.3h125.5V51.9z M133.7,56H8.2v-2.9h125.5V56z M133.7,45.6v2.9H8.2v-2.9h22.3H133.7z M120.8,42.2h-9.4v-2.3h9.4
	V42.2z M133.7,36.5H33.9H8.1v-2.9h125.5v2.9H133.7z M133.7,29H8.2v-2.9h125.5V29z M138.6,22.7h-3.1H6.5H3.4v-6.1h16.1h12.8h77.4
	h12.8h16.1L138.6,22.7L138.6,22.7z"/>
</svg>
