<?xml version="1.0" encoding="utf-8"?>
<!-- Generator: Adobe Illustrator 21.0.2, SVG Export Plug-In . SVG Version: 6.00 Build 0)  -->
<svg version="1.1" id="Layer_1" xmlns="http://www.w3.org/2000/svg" xmlns:xlink="http://www.w3.org/1999/xlink" x="0px" y="0px"
	 viewBox="0 0 1366 768" style="enable-background:new 0 0 1366 768;" xml:space="preserve">
<style type="text/css">
	.st0{fill:#06B9FF;}
	.st1{fill:#E2D67D;}
	.st2{fill:#2AAA00;}
</style>
<g>
	<rect x="-6" y="-6" class="st0" width="1372" height="774"/>
</g>
<path class="st1" d="M-109,662c0-16.4,14.2-29.2,30.5-27.6C44.7,646.7,264.7,670.9,383,614c89.3-43,270.3-182.1,350-248
	c52-43,231-51,260-17c75.9,89,91.4,273.7,163,265c85.8-10.4,199.3-17.5,283.1-24.1c16.1-1.3,29.9,11.5,29.9,27.7v101.8
	c0,15.3-12.3,27.7-27.6,27.7l-1522.5,8.7c-15.4,0.1-27.9-12.4-27.9-27.7V662z"/>
<path class="st2" d="M-109,718.2c0,0,402,16.7,539-49.2c75.8-36.5,237-184.5,310-252c53-49,200-43,225,3c53.4,98.2,66,199,143,246
	c90.3,55.1,361,8.7,361,8.7v91.4L-109,782V718.2z"/>
</svg>
