<?xml version="1.0" encoding="utf-8"?>
<!-- Generator: Adobe Illustrator 21.1.0, SVG Export Plug-In . SVG Version: 6.00 Build 0)  -->
<svg version="1.1" id="Layer_1" xmlns="http://www.w3.org/2000/svg" xmlns:xlink="http://www.w3.org/1999/xlink" x="0px" y="0px"
	 viewBox="0 0 287.3 126.4" style="enable-background:new 0 0 287.3 126.4;" xml:space="preserve">
<style type="text/css">
	.st0{fill:#646F7B;}
	.st1{fill:#B76666;}
	.st2{fill:#854343;}
	.st3{fill:#231F20;}
</style>
<g>
	<path class="st0" d="M283.5,61.8v2.7c0,9.4-2,16.4-5.8,20.2c-3,3-6.1,3-6.3,3h-11.9c1.1-5.8,1.7-12,2-18h3.7
		c1.8,0,10.9-0.2,10.9-4.1v-4.9c0-4-9.1-4.1-10.9-4.1h-3.7c-0.3-6-0.9-12.2-2-18h12c0.1,0,3.1,0,6.1,2.9
		C281.5,45.2,283.5,52.2,283.5,61.8z"/>
	<path class="st0" d="M273,60.9v4.4c-0.7,0.5-3.5,1.4-7.9,1.4h-7.6h-20.8c-4.5,0-7.2-0.9-7.9-1.4v-4.4c0.7-0.5,3.5-1.4,7.9-1.4h20.8
		h7.6C269.6,59.5,272.4,60.3,273,60.9z"/>
	<path class="st1" d="M257.4,56.5h-15.9c-0.6-13.2-2.9-20.8-3.9-23.5l-0.4-1.2l-21.4-1.7l-35.3-2.8l-44-3.5L101.3,21l-12.5-1h-0.2
		c-1.9-0.2-3.8-0.3-5.6-0.3c-12.2,0-22.8,4.3-31.7,10.5C45,34.6,39.6,39.9,35,45.3c-5,5.9-8.9,11.8-11.8,16.7l-0.6,1l0.6,1
		c2.4,4.1,6.4,10.3,11.7,16.5c0.4,0.4,0.7,0.8,1.1,1.2c4.9,5.6,10,10.3,15.3,14c10,7,20.6,10.5,31.7,10.5c1.8,0,3.7-0.1,5.6-0.3
		l12.7-1l35.2-2.8l44-3.5l35.3-2.8l21.4-1.7l0.4-1.2c1-2.7,3.2-10.2,3.9-23.5h15.9c-1,22.7-6.8,39.5-14,40.1L90.2,121.6
		c-23.7,2.4-45.4-6.8-64.3-27.4C13.4,80.6,6.3,66.3,4.6,62.8C8.1,55.3,36.9-1.5,90.2,4l153.1,12C250.6,17,256.5,33.8,257.4,56.5z"/>
	<path class="st2" d="M236.7,69.7h0.8c0,0.8-0.1,1.7-0.1,2.5c-6.7,0.1-13.8,0.2-21.7,0.4v-8.5h10.1v1.5
		C225.8,69.5,234.9,69.7,236.7,69.7z"/>
	<path class="st2" d="M237.5,56.5h-0.8c-1.8,0-10.9,0.2-10.9,4.1v1.5h-10.1v-8.5c7.9,0.2,15,0.3,21.7,0.4
		C237.4,54.8,237.5,55.6,237.5,56.5z"/>
	<path class="st2" d="M237.2,74.2c-0.3,3.2-0.6,5.9-1,8.3c-6.3,0.6-13.1,1.1-20.6,1.6v-9.4C223.5,74.4,230.6,74.2,237.2,74.2z"/>
	<path class="st2" d="M236.2,43.8c0.4,2.3,0.8,5.1,1,8.2c-6.7-0.1-13.8-0.2-21.6-0.4v-9.1C223.2,42.9,229.9,43.3,236.2,43.8z"/>
	<path class="st2" d="M234.3,35.6c0.4,1.4,1,3.4,1.5,6.2c-6.2-0.4-12.8-0.9-20.2-1.2v-6.4L234.3,35.6z"/>
	<path class="st2" d="M235.9,84.5c-0.5,2.7-1.1,4.8-1.5,6.1l-18.7,1.5V86C223,85.6,229.6,85.1,235.9,84.5z"/>
	<polygon class="st1" points="211.7,72.7 211.7,92.4 180.4,94.8 180.4,75.9 180.4,31.3 211.7,33.8 	"/>
	<path class="st2" d="M176.4,87.6v7.5l-40,3.1v-8.5C149.8,88.6,163,88.1,176.4,87.6z"/>
	<path class="st2" d="M176.4,76v9.6c-13.4,0.5-26.6,1-40,2.1V77.3C149.3,77,161.8,76.6,176.4,76z"/>
	<path class="st2" d="M176.4,64.1V74c-14.6,0.6-27.1,1-40,1.3V64.1L176.4,64.1z"/>
	<path class="st2" d="M176.4,52.2v9.9h-40V50.9C149.5,51.2,162.3,51.6,176.4,52.2z"/>
	<path class="st2" d="M176.4,40.8v9.4c-14.1-0.6-26.9-1-40-1.3V38.5C150.2,39.6,163.8,40.3,176.4,40.8z"/>
	<path class="st2" d="M176.4,31v7.8c-12.7-0.5-26.2-1.2-40-2.3v-8.6L176.4,31z"/>
	<polygon class="st1" points="132.5,27.5 132.5,98.6 101.2,101.1 101.2,25.1 	"/>
	<path class="st2" d="M97.2,92.3v9.1l-8.8,0.7h-0.2c-1.8,0.2-3.5,0.3-5.2,0.3c-9.2,0-18-2.6-26.5-7.9c5.9-0.4,11.8-0.6,17.7-0.9
		C81.7,93.3,89.6,93,97.2,92.3z"/>
	<path class="st2" d="M97.2,78.2v12.1c-7.7,0.6-15.5,1-23.2,1.3c-6.7,0.3-13.6,0.6-20.3,1.1C48.8,89.3,44,85,39.5,79.9
		c17.7-0.3,35-0.9,53.2-1.5L97.2,78.2z"/>
	<path class="st2" d="M97.2,64.1v12.1l-4.6,0.2c-18.8,0.6-36.5,1.2-54.8,1.5c-4.2-5-7.6-10-10-13.8c11.4,0,22.7,0,34.1,0
		C73.6,64.1,85.3,64.1,97.2,64.1z"/>
	<path class="st2" d="M97.2,50v12.1c-23.5,0-46.3,0-69.4,0c2.6-4.2,5.9-9,9.9-13.8c17.5,0.3,34.6,0.9,52.6,1.5L97.2,50z"/>
	<path class="st2" d="M97.2,35.9V48l-6.8-0.2c-17.5-0.6-34-1.1-51-1.4c4.1-4.6,8.8-9.1,14.2-12.8c6.8,0.5,13.8,0.8,20.6,1.1
		C81.9,34.9,89.6,35.2,97.2,35.9z"/>
	<path class="st2" d="M97.2,24.8v9.1c-7.6-0.6-15.3-1-22.8-1.3c-5.9-0.2-12-0.5-18-0.9c7.7-4.7,16.5-7.9,26.5-7.9
		c1.7,0,3.5,0.1,5.2,0.3L97.2,24.8z"/>
	<path class="st3" d="M280.4,38.6c-4.2-4.1-8.8-4.1-9-4.1h-12.8c-2.7-12-7.5-21.5-15-22.1L90.5,0.4C65.8-2.1,42.3,7.8,22.7,29.2
		C8,45.2,0.7,61.7,0.4,62.4L0,63.2L0.4,64C0.7,64.7,8,81.2,22.7,97.2c17.6,19.2,38.3,29.2,60.2,29.2c2.5,0,5-0.1,7.5-0.4l153.2-12.1
		c7.4-0.7,12.2-10.2,14.9-22.1h12.7l0,0c0.6,0,4.9-0.1,9-4.1c4.7-4.6,7.1-12.4,7.1-23.2v-2.7C287.5,51,285.1,43.2,280.4,38.6z
		 M243.4,109.8L90.2,121.9c-23.7,2.4-45.4-6.8-64.3-27.4C13.4,80.9,6.3,66.6,4.6,63.1C8.1,55.6,36.9-1.2,90.2,4.3l153.1,12
		c7.2,0.7,13.1,17.5,14,40.1h-15.9c-0.6-13.2-2.9-20.8-3.9-23.5l-0.4-1.2L215.7,30l-35.3-2.8l-44-3.5l-35.2-2.8l-12.5-1h-0.2
		c-1.9-0.2-3.8-0.3-5.6-0.3c-12.2,0-22.8,4.3-31.7,10.5c-6.3,4.4-11.7,9.7-16.3,15.1c-5,5.9-8.9,11.8-11.8,16.7l-0.6,1l0.6,1
		c2.4,4.1,6.4,10.3,11.7,16.5c0.4,0.4,0.7,0.8,1.1,1.2c4.9,5.6,10,10.3,15.3,14c10,7,20.6,10.5,31.7,10.5c1.8,0,3.7-0.1,5.6-0.3
		l12.7-1l35.2-2.8l44-3.5l35.3-2.8l21.4-1.7l0.4-1.2c1-2.7,3.2-10.2,3.9-23.5h15.9C256.5,92.4,250.6,109.2,243.4,109.8z M97.2,33.9
		c-7.6-0.6-15.3-1-22.8-1.3c-5.9-0.2-12-0.5-18-0.9c7.7-4.7,16.5-7.9,26.5-7.9c1.7,0,3.5,0.1,5.2,0.3l9,0.7v9.1H97.2z M53.7,33.5
		c6.8,0.5,13.8,0.8,20.6,1.1c7.5,0.3,15.3,0.6,22.9,1.3V48l-6.8-0.2c-17.5-0.6-34-1.1-51-1.4C43.5,41.7,48.3,37.2,53.7,33.5z
		 M37.7,48.3c17.5,0.3,34.6,0.9,52.6,1.5l6.9,0.2v12.1c-23.5,0-46.3,0-69.4,0C30.4,57.9,33.7,53.1,37.7,48.3z M61.9,64.1
		c11.7,0,23.4,0,35.3,0v12.1l-4.6,0.2c-18.8,0.6-36.5,1.2-54.8,1.5c-4.2-5-7.6-10-10-13.8C39.2,64.1,50.6,64.1,61.9,64.1z
		 M92.7,78.3l4.6-0.2v12.1c-7.7,0.6-15.5,1-23.2,1.3c-6.7,0.3-13.6,0.6-20.3,1.1c-4.9-3.4-9.7-7.7-14.2-12.8
		C57.2,79.5,74.4,78.9,92.7,78.3z M74.1,93.6c7.6-0.3,15.4-0.7,23.1-1.3v9.1l-8.8,0.7h-0.2c-1.8,0.2-3.5,0.3-5.2,0.3
		c-9.2,0-18-2.6-26.5-7.9C62.3,94.1,68.3,93.9,74.1,93.6z M101.2,25.1l31.2,2.5v71.1l-31.2,2.5V25.1z M136.5,64.1h40V74
		c-14.6,0.6-27.1,1-40,1.3V64.1z M136.5,62.1V50.9c13,0.3,25.9,0.8,40,1.3v9.9L136.5,62.1z M176.4,50.2c-14.1-0.6-26.9-1-40-1.3
		V38.5c13.8,1.1,27.3,1.8,40,2.3V50.2z M136.5,77.3c12.9-0.3,25.4-0.7,40-1.3v9.6c-13.4,0.5-26.6,1-40,2.1V77.3z M176.4,38.8
		c-12.7-0.5-26.2-1.2-40-2.3v-8.6l40,3.1V38.8z M136.5,89.7c13.4-1.1,26.6-1.6,40-2.1v7.5l-40,3.1V89.7z M180.4,75.9V31.3l31.2,2.5
		v38.9v19.7l-31.2,2.5V75.9z M215.7,42.5c7.5,0.4,14.3,0.8,20.6,1.3c0.4,2.3,0.8,5.1,1,8.2c-6.7-0.1-13.8-0.2-21.6-0.4V42.5z
		 M215.7,40.5v-6.4l18.7,1.5c0.4,1.4,1,3.4,1.5,6.2C229.7,41.3,223.1,40.9,215.7,40.5z M215.7,86c7.3-0.4,14-0.9,20.2-1.5
		c-0.5,2.7-1.1,4.8-1.5,6.1l-18.7,1.5V86z M236.2,82.4c-6.3,0.6-13.1,1.1-20.6,1.6v-9.4c7.9-0.2,15-0.4,21.6-0.4
		C237,77.3,236.6,80.1,236.2,82.4z M237.4,72.2c-6.7,0.1-13.8,0.2-21.7,0.4v-8.5h10.1v1.5c0,4,9.1,4.1,10.9,4.1h0.8
		C237.5,70.5,237.4,71.4,237.4,72.2z M225.8,60.6v1.5h-10.1v-8.5c7.9,0.2,15,0.3,21.7,0.4c0,0.8,0.1,1.6,0.1,2.5h-0.8
		C234.9,56.5,225.8,56.7,225.8,60.6z M257.5,66.7h-20.8c-4.5,0-7.2-0.9-7.9-1.4v-4.4c0.7-0.5,3.5-1.4,7.9-1.4h20.8h7.6
		c4.5,0,7.2,0.9,7.9,1.4v4.4c-0.7,0.5-3.5,1.4-7.9,1.4H257.5z M283.5,64.4c0,9.4-2,16.4-5.8,20.2c-3,3-6.1,3-6.3,3h-11.9
		c1.1-5.8,1.7-12,2-18h3.7c1.8,0,10.9-0.2,10.9-4.1v-4.9c0-4-9.1-4.1-10.9-4.1h-3.7c-0.3-6-0.9-12.2-2-18h12c0.1,0,3.1,0,6.1,2.9
		c3.9,3.8,5.9,10.8,5.9,20.3L283.5,64.4L283.5,64.4z"/>
</g>
</svg>
