<?xml version="1.0" encoding="utf-8"?>
<!-- Generator: Adobe Illustrator 21.1.0, SVG Export Plug-In . SVG Version: 6.00 Build 0)  -->
<svg version="1.1" id="Layer_1" xmlns="http://www.w3.org/2000/svg" xmlns:xlink="http://www.w3.org/1999/xlink" x="0px" y="0px"
	 viewBox="0 0 210.7 325" style="enable-background:new 0 0 210.7 325;" xml:space="preserve">
<style type="text/css">
	.st0{fill:#FFFFFF;}
	.st1{fill:#B3B3B3;}
	.st2{fill:#646F7B;}
	.st3{fill:#231F20;}
</style>
<g>
	<polygon class="st0" points="25.5,202.8 25.5,204 4,204 4,202.8 4,175.2 25.5,175.2 	"/>
	<polygon class="st0" points="25.5,206 25.5,246.5 4,246.5 4,206 	"/>
	<polygon class="st0" points="26.5,277.7 26.5,321 5,321 5,277.7 6.3,277.7 	"/>
	<rect x="193.7" y="12.7" class="st1" width="13" height="255.3"/>
	<polygon class="st1" points="145.5,268.1 145.5,280.6 132.5,280.6 132.5,268.1 132.5,0.1 145.5,0.1 	"/>
	<polygon class="st1" points="84.4,272 84.4,280.6 71.4,280.6 71.4,272 71.4,12.7 71.4,0.1 84.4,0.1 	"/>
	<rect x="10.3" y="259.9" class="st2" width="13" height="13.8"/>
	<rect x="10.3" y="250.5" class="st2" width="13" height="7.4"/>
	<rect x="10.3" y="12.7" class="st1" width="13" height="158.4"/>
	<path class="st3" d="M191.7,8.7h-2l0,0c-13.4,0.1-26.9,0.1-40.1,0.1V-4h-21V8.7c-13.3,0-26.8,0-40.1-0.1V-4h-21V8.7
		C54,8.9,41.1,8.9,27.3,8.7l0,0h-2h-19v162.5H2c-0.5,0-1,0.2-1.4,0.6S0,172.7,0,173.2v29.6v45.7c0,0.5,0.2,1,0.6,1.4
		c0.4,0.4,0.9,0.6,1.4,0.6h4.3v23.1H3c-1.1,0-2,0.9-2,2V323c0,0.5,0.2,1,0.6,1.4C2,324.8,2.5,325,3,325h25.6c1.1,0,2-0.9,2-2v-47.4
		c0-1.1-0.9-2-2-2h-1.3v-1.7c7,0,13.8,0.1,20.5,0.1c6.5,0,13.1,0,19.7-0.1v12.6h21v-12.6c13.4,0,26.8,0,40.1,0v12.6h21v-12.6
		c13.4,0,26.8,0,40.1-0.1v0.1h21V8.7H191.7z M10.3,12.7h13v158.5h-13V12.7z M4,175.2h21.6v27.6v1.2H4v-1.2V175.2z M4,246.5V206h21.6
		v40.5H4z M23.3,250.5v7.4h-13v-7.4H23.3z M26.5,321H4.9v-43.4h1.3h20.3V321z M10.3,273.7v-13.8h13v13.8H10.3z M27.3,268v-17.5h0.3
		c1.1,0,2-0.9,2-2v-45.7v-29.6c0-1.1-0.9-2-2-2h-0.3V12.8c7,0.1,13.7,0.1,20.4,0.1c6.5,0,13,0,19.7-0.1V268
		C54,268.1,41.1,268.1,27.3,268z M84.4,280.6h-13V272V12.7V0.1h13V272V280.6z M88.4,268V12.7c13.4,0.1,26.9,0.1,40.1,0.1V268
		C115.2,268.1,101.8,268.1,88.4,268z M145.5,280.6h-13V268V0h13v268V280.6z M149.5,268.1V12.9c13.2,0,26.7-0.1,40.1-0.1V268
		C176.3,268,162.9,268.1,149.5,268.1z M206.7,268.1h-13V12.7h13V268.1z"/>
</g>
</svg>
