<?xml version="1.0" encoding="utf-8"?>
<!-- Generator: Adobe Illustrator 21.1.0, SVG Export Plug-In . SVG Version: 6.00 Build 0)  -->
<svg version="1.1" id="Layer_1" xmlns="http://www.w3.org/2000/svg" xmlns:xlink="http://www.w3.org/1999/xlink" x="0px" y="0px"
	 viewBox="0 0 78.2 20.4" style="enable-background:new 0 0 78.2 20.4;" xml:space="preserve">
<style type="text/css">
	.st0{fill:#FFDEA9;}
	.st1{fill:#B3B3B3;}
	.st2{fill:#231F20;}
</style>
<g>
	<path class="st0" d="M76,10.2v5.7H43.9V4.4h24.3C72.4,4.5,76,7.1,76,10.2z"/>
	<rect x="38.8" y="4.5" class="st1" width="2.8" height="11.5"/>
	<path class="st2" d="M68.1,0H42.7H12.3C5.5,0,0,4.6,0,10.2v8c0,1.2,1,2.2,2.2,2.2h40.5h35.5c1.2,0,2.2-1,2.2-2.2v-8
		C80.5,4.6,74.9,0,68.1,0z M41.6,16h-2.8V4.5h2.8V16z M4.4,10.2c0-3.1,3.6-5.7,7.8-5.7h24.3V16H4.4L4.4,10.2L4.4,10.2z M76,16H43.9
		V4.5h24.3c4.3,0,7.8,2.6,7.8,5.7L76,16L76,16z"/>
	<path class="st0" d="M36.6,4.5V16H4.5v-5.7c0-3.1,3.6-5.7,7.8-5.7L36.6,4.5L36.6,4.5z"/>
</g>
</svg>
