<?xml version="1.0" encoding="utf-8"?>
<!-- Generator: Adobe Illustrator 21.1.0, SVG Export Plug-In . SVG Version: 6.00 Build 0)  -->
<svg version="1.1" id="Layer_1" xmlns="http://www.w3.org/2000/svg" xmlns:xlink="http://www.w3.org/1999/xlink" x="0px" y="0px"
	 viewBox="0 0 117.4 116.5" style="enable-background:new 0 0 117.4 116.5;" xml:space="preserve">
<style type="text/css">
	.st0{fill:#B3B3B3;}
	.st1{fill:#231F20;}
</style>
<g>
	<polygon class="st0" points="110.8,113.7 87.4,113.7 4,30.3 4,6.9 	"/>
	<polygon class="st0" points="83.1,113.7 59,113.7 4,58.7 4,34.6 	"/>
	<polygon class="st0" points="54.7,113.7 30.5,113.7 4,87.2 4,63 	"/>
	<polygon class="st0" points="26.3,113.7 4,113.7 4,91.4 	"/>
	<path class="st1" d="M117.1,114.3L3.4,0.6C2.8,0,2-0.1,1.2,0.2C0.5,0.5,0,1.2,0,2v29.5h0.9L3,29.4l0.9,0.9V6.8l106.8,106.8H87.2
		L3.8,30.2v4.2l79.1,79.1H58.7l-55-55v4.2l50.7,50.7H30.2L4,87.2V63l-3.1-3.1H0v28.4v27.4c0,1.1,0.9,2,2,2h26.9h28.9H86h29.6
		c0.8,0,1.5-0.5,1.8-1.2C117.8,115.7,117.7,114.9,117.1,114.3z M4,113.7V91.4l22.3,22.3H4z"/>
</g>
<polygon class="st1" points="4,58.7 4,63 0.9,59.9 3.1,57.8 "/>
<polygon class="st1" points="4,34.6 4,58.7 3.1,57.8 0.9,59.9 0,59.9 0,31.5 0.9,31.5 "/>
<polygon class="st1" points="4,30.3 4,34.6 0.9,31.5 3.1,29.4 "/>
</svg>
