<?xml version="1.0" encoding="utf-8"?>
<!-- Generator: Adobe Illustrator 21.1.0, SVG Export Plug-In . SVG Version: 6.00 Build 0)  -->
<svg version="1.1" id="Layer_1" xmlns="http://www.w3.org/2000/svg" xmlns:xlink="http://www.w3.org/1999/xlink" x="0px" y="0px"
	 viewBox="0 0 38.4 38.4" style="enable-background:new 0 0 38.4 38.4;" xml:space="preserve">
<style type="text/css">
	.st0{fill:#FFDEA9;}
	.st1{fill:#B3B3B3;}
	.st2{fill:#231F20;}
</style>
<g>
	<path class="st0" d="M33.7,13v12.4c0,4.6-3.7,8.3-8.3,8.3h-3.8V22.3l11.7-11.7C33.6,11.3,33.7,12.2,33.7,13z"/>
	<path class="st0" d="M28.2,5.3L17,16.4H4.7V13c0-4.6,3.7-8.3,8.3-8.3h12.4C26.4,4.8,27.3,4.9,28.2,5.3z"/>
	<path class="st1" d="M32.2,8.3L21.6,18.9v-0.1c0-1-0.6-1.8-1.4-2.2L30.4,6.4C31.1,6.9,31.7,7.6,32.2,8.3z"/>
	<path class="st2" d="M37.4,8c-2-4.7-6.6-8-12-8H13C5.8,0,0,5.8,0,13v5.7c0,1.3,1.1,2.4,2.4,2.4h14.4V36c0,1.3,1.1,2.4,2.4,2.4h6.2
		c7.2,0,13-5.8,13-13V13C38.4,11.2,38.1,9.5,37.4,8z M20.2,16.6L30.4,6.4c0.7,0.5,1.3,1.1,1.8,1.9L21.6,18.9v-0.1
		C21.6,17.8,21,17,20.2,16.6z M4.7,13c0-4.6,3.7-8.3,8.3-8.3h12.4c1,0,1.9,0.2,2.8,0.5L17,16.4H4.7L4.7,13L4.7,13z M33.7,25.4
		c0,4.6-3.7,8.3-8.3,8.3h-3.8V22.3l11.7-11.7c0.3,0.8,0.4,1.6,0.4,2.5L33.7,25.4L33.7,25.4z"/>
</g>
</svg>
