<?xml version="1.0" encoding="utf-8"?>
<!-- Generator: Adobe Illustrator 21.1.0, SVG Export Plug-In . SVG Version: 6.00 Build 0)  -->
<svg version="1.1" id="Layer_1" xmlns="http://www.w3.org/2000/svg" xmlns:xlink="http://www.w3.org/1999/xlink" x="0px" y="0px"
	 viewBox="0 0 178 117.7" style="enable-background:new 0 0 178 117.7;" xml:space="preserve">
<style type="text/css">
	.st0{fill:#B3B3B3;}
	.st1{fill:#231F20;}
</style>
<g>
	<rect x="2" y="88.8" class="st0" width="172" height="24.9"/>
	<rect x="2" y="60.4" class="st0" width="172" height="25.4"/>
	<rect x="2" y="32" class="st0" width="172" height="25.4"/>
	<rect x="2" y="4" class="st0" width="172" height="24.9"/>
	<path class="st1" d="M176,0H0c-1.1,0-2,0.9-2,2v86.8v26.9c0,1.1,0.9,2,2,2h176c1.1,0,2-0.9,2-2V88.8V2C178,0.9,177.1,0,176,0z
		 M174,57.4H2V32h172V57.4z M2,60.4h172v25.4H2V60.4z M2,4h172v24.9H2V4z M174,113.7H2V88.8h172V113.7z"/>
</g>
</svg>
