<?xml version="1.0" encoding="utf-8"?>
<!-- Generator: Adobe Illustrator 21.1.0, SVG Export Plug-In . SVG Version: 6.00 Build 0)  -->
<svg version="1.1" id="Layer_1" xmlns="http://www.w3.org/2000/svg" xmlns:xlink="http://www.w3.org/1999/xlink" x="0px" y="0px"
	 viewBox="0 0 82.3 58.7" style="enable-background:new 0 0 82.3 58.7;" xml:space="preserve">
<style type="text/css">
	.st0{fill:#646F7B;}
	.st1{fill:#B3B3B3;}
	.st2{fill:#231F20;}
</style>
<g>
	<g>
		<g>
			<g id="XMLID_6_">
				<g>
					<path class="st0" d="M2.3,2.4h15.2v12h-3.3V6c0-0.7-0.5-1.2-1.1-1.2H7.5c-0.6,0-1.1,0.5-1.1,1.1L6,14.4H2.4v-12H2.3z"/>
					<polygon class="st1" points="12,56.2 6.4,56.2 8.5,7.1 12,7.1 					"/>
					<polygon class="st1" points="70.4,56.2 70.4,7.1 73.9,7.1 76,56.2 					"/>
					<path class="st0" d="M80.3,2.4v12h-3.8l-0.4-8.5c0-0.6-0.5-1.1-1.1-1.1h-5.6c-0.6,0-1.1,0.5-1.1,1.2v8.4h-3.1v-12H80.3z"/>
					<path class="st2" d="M81.4,0H63.9c-0.6,0-1.1,0.5-1.1,1.2v14.4c0,0.6,0.5,1.2,1.1,1.2h4.2v18.8H14.2V16.8h4.4
						c0.6,0,1.1-0.6,1.1-1.2V1.2c0-0.7-0.5-1.2-1.1-1.2H1.1C0.5,0,0,0.5,0,1.2v14.4c0,0.6,0.5,1.2,1.1,1.2h4.6L4,57.4
						c0,0.3,0.1,0.7,0.3,0.9c0.2,0.2,0.5,0.4,0.8,0.4H13c0.6,0,1.1-0.5,1.1-1.2v-4.3H68v4.2c0,0.7,0.5,1.2,1.1,1.2H77
						c0.3,0,0.6-0.1,0.8-0.4c0.2-0.2,0.3-0.6,0.3-0.9l-1.7-40.6h4.8c0.6,0,1.1-0.6,1.1-1.2V1.2C82.5,0.5,82,0,81.4,0z M12,56.2H6.4
						L8.5,7.1H12V56.2z M13.1,4.7H7.5c-0.6,0-1.1,0.5-1.1,1.1L6,14.3H2.4v-12h15.2v12h-3.3V5.9C14.2,5.2,13.7,4.7,13.1,4.7z
						 M68.1,49.6H14.2V39.1h53.9V49.6z M70.4,56.2V7.1h3.5L76,56.2H70.4z M80.3,14.3h-3.8l-0.4-8.5c0-0.6-0.5-1.1-1.1-1.1h-5.6
						c-0.6,0-1.1,0.5-1.1,1.2v8.4h-3.1v-12h15.2v12H80.3z"/>
					<rect x="14.2" y="39.1" class="st0" width="53.9" height="10.5"/>
				</g>
			</g>
		</g>
	</g>
</g>
</svg>
