<?xml version="1.0" encoding="utf-8"?>
<!-- Generator: Adobe Illustrator 21.1.0, SVG Export Plug-In . SVG Version: 6.00 Build 0)  -->
<svg version="1.1" id="Layer_1" xmlns="http://www.w3.org/2000/svg" xmlns:xlink="http://www.w3.org/1999/xlink" x="0px" y="0px"
	 viewBox="0 0 226.3 292.9" style="enable-background:new 0 0 226.3 292.9;" xml:space="preserve">
<style type="text/css">
	.st0{fill:#646F7B;}
	.st1{fill:#B3B3B3;}
	.st2{fill:#231F20;}
</style>
<g>
	<path class="st0" d="M223.3,255.8v34h-34v-6.2h24.2c1.1,0,2-0.9,2-2v-17.5c0-1.1-0.9-2-2-2h-24.2v-6.2L223.3,255.8L223.3,255.8z"/>
	<path class="st0" d="M223.3,3v34h-34v-6.2h24.2c1.1,0,2-0.9,2-2V11.3c0-1.1-0.9-2-2-2h-24.2V3.1L223.3,3L223.3,3z"/>
	<polygon class="st1" points="211.4,266 211.4,279.5 189.3,279.5 40.1,279.5 14.9,279.5 14.9,266 81.1,266 161.7,266 	"/>
	<polygon class="st1" points="211.4,13.2 211.4,26.7 170.8,26.7 138.1,26.7 90.1,26.7 57.4,26.7 14.9,26.7 14.9,13.2 37.1,13.2 
		186.3,13.2 	"/>
	<polygon class="st1" points="168.8,121.8 168.8,211.5 161.7,211.5 140.1,211.5 140.1,30.7 168.8,30.7 	"/>
	<rect x="148.6" y="215.7" class="st0" width="11.6" height="46.3"/>
	<polygon class="st1" points="88.1,30.7 88.1,211.5 81.1,211.5 59.4,211.5 59.4,121.8 59.4,30.7 	"/>
	<rect x="68" y="215.7" class="st0" width="11.6" height="46.3"/>
	<path class="st2" d="M187.8,40h37c0.8,0,1.5-0.7,1.5-1.5v-37c0-0.8-0.7-1.5-1.5-1.5h-37c-0.8,0-1.5,0.7-1.5,1.5v7.7H40.1V1.5
		c0-0.8-0.7-1.5-1.5-1.5h-37C0.8,0,0.1,0.7,0.1,1.5v37c0,0.8,0.7,1.5,1.5,1.5h37c0.8,0,1.5-0.7,1.5-1.5v-7.7h15.3v23.1V122v51.9
		v39.7c0,1.1,0.9,2,2,2h7.5v23.9v22.6H40v-7.7c0-0.8-0.7-1.5-1.5-1.5h-37c-0.8,0-1.5,0.7-1.5,1.5v37c0,0.8,0.7,1.5,1.5,1.5h37
		c0.8,0,1.5-0.7,1.5-1.5v-7.7h146.3v7.7c0,0.8,0.7,1.5,1.5,1.5h37c0.8,0,1.5-0.7,1.5-1.5v-37c0-0.8-0.7-1.5-1.5-1.5h-37
		c-0.8,0-1.5,0.7-1.5,1.5v7.7h-23v-23v-23.6h7.5c1.1,0,2-0.9,2-2v-39.6V122V53.9V30.8h13.5v7.7C186.3,39.3,186.9,40,187.8,40z
		 M37.1,37h-34V3h34v6.2H12.9c-1.1,0-2,0.9-2,2v17.5c0,1.1,0.9,2,2,2h24.2V37z M136.1,30.7v182.8c0,1.1,0.9,2,2,2h7.5V262H82.5
		v-46.5H90c1.1,0,2-0.9,2-2V30.7H136.1z M88.1,211.5h-7H59.5v-89.7V30.7h28.7v180.8H88.1z M68,215.7h11.6V262H68V215.7z M37.1,289.8
		h-34v-34h34v6.2H12.9c-1.1,0-2,0.9-2,2v17.5c0,1.1,0.9,2,2,2h24.2V289.8z M189.3,255.8h34v34h-34v-6.2h24.2c1.1,0,2-0.9,2-2v-17.5
		c0-1.1-0.9-2-2-2h-24.2V255.8z M211.4,266v13.5h-22.1H40.1H14.9V266h66.2h80.7H211.4z M148.6,262v-46.3h11.6V262H148.6z
		 M168.8,121.8v89.7h-7h-21.6V30.7h28.7v91.1H168.8z M170.8,26.7h-32.7h-48H57.4H14.9V13.2h22.2h149.2h25.2v13.5H170.8z M213.4,30.7
		c1.1,0,2-0.9,2-2V11.2c0-1.1-0.9-2-2-2h-24.1V3h34v34h-34v-6.2h24.1V30.7z"/>
	<path class="st0" d="M37.1,283.5v6.2h-34v-34h34v6.2H12.9c-1.1,0-2,0.9-2,2v17.5c0,1.1,0.9,2,2,2L37.1,283.5L37.1,283.5z"/>
	<path class="st0" d="M37.1,30.7v6.2h-34v-34h34v6.2H12.9c-1.1,0-2,0.9-2,2v17.5c0,1.1,0.9,2,2,2L37.1,30.7L37.1,30.7z"/>
</g>
</svg>
