<?xml version="1.0" encoding="utf-8"?>
<!-- Generator: Adobe Illustrator 21.1.0, SVG Export Plug-In . SVG Version: 6.00 Build 0)  -->
<svg version="1.1" id="Layer_1" xmlns="http://www.w3.org/2000/svg" xmlns:xlink="http://www.w3.org/1999/xlink" x="0px" y="0px"
	 viewBox="0 0 612 792" style="enable-background:new 0 0 612 792;" xml:space="preserve">
<style type="text/css">
	.st0{fill:#231F20;}
</style>
<g>
	<path class="st0" d="M259.5,485.6c0,5.9-4.9,10.8-10.8,10.8h-13.1c-5.9,0-10.8-4.9-10.8-10.8V439c0-5.9,4.9-10.8,10.8-10.8h13.1
		c5.9,0,10.8,4.9,10.8,10.8V485.6z"/>
	<path class="st0" d="M259.5,352.5c0,5.9-4.9,10.8-10.8,10.8h-13.1c-5.9,0-10.8-4.9-10.8-10.8V306c0-5.9,4.9-10.8,10.8-10.8h13.1
		c5.9,0,10.8,4.9,10.8,10.8V352.5z"/>
	<path class="st0" d="M386.5,485.6c0,5.9-4.9,10.8-10.8,10.8h-13.1c-5.9,0-10.8-4.9-10.8-10.8V439c0-5.9,4.9-10.8,10.8-10.8h13.1
		c5.9,0,10.8,4.9,10.8,10.8V485.6z"/>
	<path class="st0" d="M386.5,352.5c0,5.9-4.9,10.8-10.8,10.8h-13.1c-5.9,0-10.8-4.9-10.8-10.8V306c0-5.9,4.9-10.8,10.8-10.8h13.1
		c5.9,0,10.8,4.9,10.8,10.8V352.5z"/>
</g>
</svg>
